<svg xmlns="http://www.w3.org/2000/svg" width="24" height="24" viewBox="0 0 24 24">
  <path d="M8.29,20 C15.837,20 19.965,13.8436496 19.965,8.5054596 C19.965,8.3302096 19.965,8.1559496 19.953,7.9826696 C20.756,7.4116296 21.449,6.7027596 22,5.8914996 C21.252,6.2183696 20.457,6.4329996 19.644,6.5275096 C20.5,6.0224396 21.141,5.2288996 21.448,4.2925996 C20.642,4.7632096 19.761,5.0949996 18.842,5.2732096 C17.288,3.6467396 14.689,3.5679796 13.036,5.0979596 C11.971,6.0844696 11.518,7.5553796 11.849,8.9583496 C8.55,8.7949196 5.476,7.2609996 3.392,4.7376196 C2.303,6.5836296 2.86,8.9445696 4.663,10.1299596 C4.01,10.1112496 3.371,9.9379696 2.8,9.6248896 L2.8,9.6760796 C2.801,11.5988996 4.178,13.2548996 6.092,13.6359096 C5.488,13.7983596 4.854,13.8219896 4.24,13.7048296 C4.777,15.3509896 6.318,16.4782896 8.073,16.5107796 C6.62,17.6351296 4.825,18.2455396 2.977,18.2435796 C2.651,18.2425896 2.325,18.2238796 2,18.1854896 C3.877,19.3708796 6.06,20 8.29,19.9970496"/>
</svg>
